<svg xmlns="http://www.w3.org/2000/svg" width="537" height="159" fill="none" viewBox="0 0 537 159"><path fill="#7e3bbf" d="M1 116V3.5h62.25V116zm194.412-74.7h-65.4v8.55h63.15V71h-63.15v8.7h66.3V116H69.262V3.5h126.15zm132.715 0h-65.4v8.55h63.15V71h-63.15v8.7h66.3V116h-127.05V3.5h126.15zm132.714 0h-65.4v8.55h63.15V71h-63.15v8.7h66.3V116h-127.05V3.5h126.15zM477 66.656q3.6 1.056 7.2 2.16 3.6 1.056 7.2 2.16 3.6 1.056 7.2 2.16 3.6 1.056 7.2 2.16 3.6 1.056 7.2 2.16v27.792q-6 1.776-12 3.6l-12 3.552q-6 1.776-12 3.6V94.592l3.744-.576q1.824-.336 3.696-.624l3.744-.576 3.744-.576 3.744-.576q1.824-.336 3.696-.624v-.096l-3.168-.48a134 134 0 0 0-3.216-.528l-3.168-.48a134 134 0 0 0-3.216-.528l-6.384-1.008a134 134 0 0 0-3.216-.528zm36-.975h-36V45.76h36zM477 .925h14.592v11.568l.048.048v.048H513v19.92h-21.312q-.048 0-.048.048-.048 0-.048.048v11.568H477z"/><path fill="#fff" fill-opacity=".7" d="M.88 151v-25.2h10.188q2.34 0 4.104.828 1.8.792 2.808 2.304 1.008 1.476 1.008 3.564v.396q0 2.484-1.188 3.924t-2.808 1.944v.504q1.296.036 2.124.864.864.792.864 2.412V151h-2.988v-8.1q0-1.08-.612-1.656-.576-.576-1.764-.576H3.904V151zm3.024-13.068h6.876q2.484 0 3.816-1.188 1.368-1.224 1.368-3.384v-.252q0-2.16-1.332-3.348-1.332-1.224-3.852-1.224H3.904zm27.93 13.572q-2.663 0-4.715-1.116a8.1 8.1 0 0 1-3.168-3.132q-1.116-2.052-1.116-4.824v-.468q0-2.736 1.116-4.788 1.152-2.052 3.168-3.168 2.052-1.116 4.716-1.116t4.68 1.116a7.75 7.75 0 0 1 3.168 3.168q1.152 2.052 1.152 4.788v.468q0 2.772-1.152 4.824a7.8 7.8 0 0 1-3.168 3.132q-2.016 1.116-4.68 1.116m0-2.556q2.809 0 4.465-1.764 1.692-1.8 1.692-4.824v-.324q0-3.024-1.692-4.788-1.656-1.8-4.464-1.8-2.772 0-4.464 1.8-1.692 1.764-1.692 4.788v.324q0 3.024 1.692 4.824 1.692 1.764 4.464 1.764m23.875 2.556q-2.736 0-4.284-1.044-1.512-1.044-2.196-2.376h-.504V151h-2.772v-25.2h2.844v10.368h.504a5.6 5.6 0 0 1 1.224-1.548q.792-.756 2.052-1.224 1.296-.504 3.132-.504 2.304 0 4.176 1.116 1.908 1.08 3.024 3.132 1.116 2.016 1.116 4.824v.468q0 2.808-1.152 4.86-1.116 2.052-3.024 3.132-1.872 1.08-4.14 1.08m-.756-2.52q2.736 0 4.428-1.728 1.728-1.764 1.728-4.896v-.324q0-3.132-1.728-4.86-1.692-1.764-4.428-1.764-2.7 0-4.464 1.764-1.728 1.728-1.728 4.86v.324q0 3.132 1.728 4.896 1.764 1.728 4.464 1.728m22.304 2.52q-2.664 0-4.716-1.116a8.1 8.1 0 0 1-3.168-3.132q-1.116-2.052-1.116-4.824v-.468q0-2.736 1.116-4.788 1.152-2.052 3.168-3.168 2.052-1.116 4.716-1.116t4.68 1.116a7.75 7.75 0 0 1 3.168 3.168q1.152 2.052 1.152 4.788v.468q0 2.772-1.152 4.824a7.8 7.8 0 0 1-3.168 3.132q-2.016 1.116-4.68 1.116m0-2.556q2.808 0 4.464-1.764 1.692-1.8 1.692-4.824v-.324q0-3.024-1.692-4.788-1.656-1.8-4.464-1.8-2.772 0-4.464 1.8-1.692 1.764-1.692 4.788v.324q0 3.024 1.692 4.824 1.692 1.764 4.464 1.764M97.117 151q-1.513 0-2.34-.828-.793-.828-.793-2.268V135.88h-5.292v-2.484h5.292v-6.264h2.844v6.264h5.76v2.484h-5.76v11.592q0 1.08 1.044 1.08h3.924V151zm10.078 0v-17.604h2.844V151zm1.44-20.34q-.936 0-1.584-.612-.612-.612-.612-1.548 0-.972.612-1.584.648-.612 1.584-.612t1.548.612.612 1.584q0 .936-.612 1.548t-1.548.612m15.484 20.844q-2.556 0-4.608-1.08-2.016-1.116-3.204-3.168-1.152-2.052-1.152-4.86V142q0-2.844 1.152-4.86 1.188-2.052 3.204-3.132 2.052-1.116 4.608-1.116 2.52 0 4.284.936 1.8.936 2.808 2.484a8.2 8.2 0 0 1 1.332 3.312l-2.772.576a5.9 5.9 0 0 0-.864-2.376q-.648-1.08-1.836-1.728t-2.916-.648q-1.764 0-3.168.792-1.368.792-2.196 2.268-.792 1.476-.792 3.528v.324q0 2.052.792 3.528.828 1.476 2.196 2.268 1.404.792 3.168.792 2.628 0 3.996-1.368 1.404-1.368 1.728-3.384l2.808.612a9.7 9.7 0 0 1-1.44 3.276q-1.044 1.548-2.844 2.484-1.764.936-4.284.936m20.508 0q-3.276 0-5.544-1.512-2.232-1.512-2.7-4.788l2.7-.612q.288 1.728 1.08 2.736a4.5 4.5 0 0 0 1.944 1.404 7.9 7.9 0 0 0 2.52.396q1.98 0 3.132-.792t1.152-2.124q0-1.368-1.116-1.908-1.08-.576-2.988-.936l-1.476-.252a13.3 13.3 0 0 1-3.096-.9q-1.404-.612-2.232-1.656t-.828-2.628q0-2.376 1.836-3.708t4.86-1.332q2.988 0 4.824 1.368 1.872 1.332 2.412 3.78l-2.664.684q-.324-1.908-1.548-2.664-1.224-.792-3.024-.792t-2.844.684q-1.044.648-1.044 1.944 0 1.26.972 1.872 1.008.576 2.664.864l1.476.252q1.872.324 3.348.9 1.512.54 2.376 1.584.9 1.044.9 2.736 0 2.592-1.944 3.996-1.908 1.404-5.148 1.404m27.15-.504q-2.088 0-3.78-.792t-2.664-2.268-.972-3.6q0-1.584.612-2.772t1.584-1.944a7.5 7.5 0 0 1 2.124-1.188v-.396q-1.656-.504-2.88-1.836-1.224-1.368-1.224-3.708 0-2.16 1.008-3.672a6.27 6.27 0 0 1 2.664-2.268q1.656-.756 3.672-.756h4.536v2.448h-4.176q-2.016 0-3.42 1.116-1.368 1.08-1.368 3.312 0 1.512.648 2.484a4.13 4.13 0 0 0 1.764 1.44q1.08.432 2.376.432h4.968v-3.852h2.844v3.852h3.528v2.484h-3.528V151zm.36-2.448h5.112v-9.036h-5.112q-2.052 0-3.492 1.116-1.404 1.08-1.404 3.384t1.44 3.42q1.476 1.116 3.456 1.116M194.193 151l7.776-25.2h5.328l7.776 25.2h-3.132l-1.944-6.372h-10.728L197.325 151zm5.832-9.108h9.18l-4.32-14.256h-.504zm25.664 9.432q-1.908 0-3.528-.828-1.584-.828-2.52-2.448-.9-1.656-.9-3.996v-10.656h2.844v10.44q0 2.628 1.296 3.816 1.332 1.188 3.564 1.188 2.52 0 4.14-1.656t1.62-4.932v-8.856h2.844V151h-2.772v-2.988h-.504q-.576 1.26-1.98 2.304-1.404 1.008-4.104 1.008M247.48 151q-1.512 0-2.34-.828-.792-.828-.792-2.268V135.88h-5.292v-2.484h5.292v-6.264h2.844v6.264h5.76v2.484h-5.76v11.592q0 1.08 1.044 1.08h3.924V151zm17.582.504q-2.664 0-4.716-1.116a8.1 8.1 0 0 1-3.168-3.132q-1.116-2.052-1.116-4.824v-.468q0-2.736 1.116-4.788 1.152-2.052 3.168-3.168 2.052-1.116 4.716-1.116t4.68 1.116a7.75 7.75 0 0 1 3.168 3.168q1.152 2.052 1.152 4.788v.468q0 2.772-1.152 4.824a7.8 7.8 0 0 1-3.168 3.132q-2.016 1.116-4.68 1.116m0-2.556q2.808 0 4.464-1.764 1.692-1.8 1.692-4.824v-.324q0-3.024-1.692-4.788-1.656-1.8-4.464-1.8-2.772 0-4.464 1.8-1.692 1.764-1.692 4.788v.324q0 3.024 1.692 4.824 1.692 1.764 4.464 1.764M279.179 151v-17.604h2.772v2.196h.504q.504-.936 1.656-1.728t3.24-.792q2.052 0 3.312.9 1.296.9 1.872 2.196h.504q.612-1.296 1.836-2.196 1.26-.9 3.492-.9 1.764 0 3.096.72a5.15 5.15 0 0 1 2.088 2.088q.792 1.332.792 3.204V151h-2.844v-11.664q0-1.764-1.044-2.772-1.008-1.044-2.844-1.044-1.944 0-3.204 1.26-1.224 1.26-1.224 3.636V151h-2.844v-11.664q0-1.764-1.044-2.772-1.008-1.044-2.844-1.044-1.944 0-3.204 1.26-1.224 1.26-1.224 3.636V151zm36.373.504q-1.836 0-3.348-.648t-2.376-1.872-.864-2.988q0-1.8.864-2.952.864-1.188 2.376-1.764 1.512-.612 3.384-.612h5.94v-1.296q0-1.872-1.116-2.952-1.08-1.08-3.24-1.08-2.124 0-3.312 1.044-1.188 1.008-1.62 2.736l-2.664-.864a7.8 7.8 0 0 1 1.368-2.664q.936-1.224 2.484-1.944 1.584-.756 3.78-.756 3.384 0 5.256 1.764 1.872 1.728 1.872 4.896v7.956q0 1.08 1.008 1.08h1.62V151h-2.484q-1.188 0-1.908-.648-.72-.684-.72-1.8v-.18h-.432a8.6 8.6 0 0 1-1.08 1.44q-.648.72-1.8 1.188-1.152.504-2.988.504m.324-2.448q2.52 0 4.068-1.476 1.584-1.512 1.584-4.212v-.396h-5.832q-1.692 0-2.808.756-1.08.72-1.08 2.196t1.116 2.304q1.152.828 2.952.828M336.179 151q-1.512 0-2.34-.828-.792-.828-.792-2.268V135.88h-5.292v-2.484h5.292v-6.264h2.844v6.264h5.76v2.484h-5.76v11.592q0 1.08 1.044 1.08h3.924V151zm10.079 0v-17.604h2.844V151zm1.44-20.34q-.936 0-1.584-.612-.612-.612-.612-1.548 0-.972.612-1.584.648-.612 1.584-.612t1.548.612.612 1.584q0 .936-.612 1.548t-1.548.612m15.52 20.844q-2.664 0-4.716-1.116a8.1 8.1 0 0 1-3.168-3.132q-1.116-2.052-1.116-4.824v-.468q0-2.736 1.116-4.788 1.152-2.052 3.168-3.168 2.052-1.116 4.716-1.116t4.68 1.116a7.75 7.75 0 0 1 3.168 3.168q1.152 2.052 1.152 4.788v.468q0 2.772-1.152 4.824a7.8 7.8 0 0 1-3.168 3.132q-2.016 1.116-4.68 1.116m0-2.556q2.808 0 4.464-1.764 1.692-1.8 1.692-4.824v-.324q0-3.024-1.692-4.788-1.656-1.8-4.464-1.8-2.772 0-4.464 1.8-1.692 1.764-1.692 4.788v.324q0 3.024 1.692 4.824 1.692 1.764 4.464 1.764M377.336 151v-17.604h2.772v2.988h.504q.576-1.26 1.944-2.268 1.404-1.044 4.104-1.044 1.98 0 3.528.828 1.584.828 2.52 2.448t.936 3.996V151H390.8v-10.44q0-2.628-1.332-3.816-1.296-1.188-3.528-1.188-2.556 0-4.176 1.656-1.584 1.656-1.584 4.932V151zm39.569.504q-2.736 0-4.896-.972t-3.42-2.916q-1.224-1.98-1.224-4.932v-.756h2.988v.756q0 3.132 1.836 4.68 1.836 1.512 4.716 1.512 2.952 0 4.5-1.332t1.548-3.348q0-1.404-.72-2.232-.684-.828-1.944-1.332-1.26-.54-2.952-.936l-1.872-.468q-2.196-.576-3.888-1.404t-2.664-2.16q-.936-1.368-.936-3.492t1.044-3.672q1.08-1.548 2.988-2.376 1.944-.828 4.464-.828 2.556 0 4.572.9 2.052.864 3.204 2.592 1.188 1.692 1.188 4.284v1.512h-2.988v-1.512q0-1.836-.792-2.952-.756-1.116-2.124-1.656-1.332-.54-3.06-.54-2.484 0-3.996 1.116-1.512 1.08-1.512 3.096 0 1.332.648 2.16t1.836 1.368q1.188.504 2.844.9l1.872.468q2.196.468 3.924 1.296 1.764.792 2.808 2.196 1.044 1.368 1.044 3.6t-1.116 3.888-3.168 2.592q-2.016.9-4.752.9m21.934 0q-2.664 0-4.716-1.116a8.1 8.1 0 0 1-3.168-3.132q-1.116-2.052-1.116-4.824v-.468q0-2.736 1.116-4.788 1.152-2.052 3.168-3.168 2.052-1.116 4.716-1.116t4.68 1.116a7.75 7.75 0 0 1 3.168 3.168q1.152 2.052 1.152 4.788v.468q0 2.772-1.152 4.824a7.8 7.8 0 0 1-3.168 3.132q-2.016 1.116-4.68 1.116m0-2.556q2.808 0 4.464-1.764 1.692-1.8 1.692-4.824v-.324q0-3.024-1.692-4.788-1.656-1.8-4.464-1.8-2.772 0-4.464 1.8-1.692 1.764-1.692 4.788v.324q0 3.024 1.692 4.824 1.692 1.764 4.464 1.764m22.218 2.556q-2.556 0-4.608-1.08-2.016-1.116-3.204-3.168-1.152-2.052-1.152-4.86V142q0-2.844 1.152-4.86 1.188-2.052 3.204-3.132 2.052-1.116 4.608-1.116 2.52 0 4.284.936 1.8.936 2.808 2.484a8.2 8.2 0 0 1 1.332 3.312l-2.772.576a5.9 5.9 0 0 0-.864-2.376q-.648-1.08-1.836-1.728t-2.916-.648q-1.764 0-3.168.792-1.368.792-2.196 2.268-.792 1.476-.792 3.528v.324q0 2.052.792 3.528.828 1.476 2.196 2.268 1.404.792 3.168.792 2.628 0 3.996-1.368 1.404-1.368 1.728-3.384l2.808.612a9.7 9.7 0 0 1-1.44 3.276q-1.044 1.548-2.844 2.484-1.764.936-4.284.936m13.415-.504v-17.604h2.844V151zm1.44-20.34q-.936 0-1.584-.612-.612-.612-.612-1.548 0-.972.612-1.584.648-.612 1.584-.612t1.548.612.612 1.584q0 .936-.612 1.548t-1.548.612m15.449 20.844q-2.664 0-4.68-1.116a8.05 8.05 0 0 1-3.132-3.204q-1.116-2.052-1.116-4.752V142q0-2.736 1.116-4.788t3.096-3.168q1.98-1.152 4.536-1.152 2.484 0 4.392 1.08 1.908 1.044 2.988 3.024t1.08 4.644v1.296h-14.364q.108 2.844 1.836 4.464 1.728 1.584 4.32 1.584 2.268 0 3.492-1.044a7 7 0 0 0 1.872-2.484l2.448 1.188q-.54 1.116-1.512 2.232-.936 1.116-2.484 1.872-1.512.756-3.888.756m-6.048-10.908h11.448q-.144-2.448-1.692-3.816-1.512-1.368-3.888-1.368-2.412 0-3.96 1.368t-1.908 3.816M510.343 151q-1.512 0-2.34-.828-.792-.828-.792-2.268V135.88h-5.292v-2.484h5.292v-6.264h2.844v6.264h5.76v2.484h-5.76v11.592q0 1.08 1.044 1.08h3.924V151zm12.203 7.2v-2.52h10.08q1.044 0 1.044-1.08v-6.408h-.504q-.36.756-1.116 1.512-.72.72-1.908 1.188-1.188.432-2.988.432-1.908 0-3.528-.828-1.584-.828-2.52-2.448-.9-1.62-.9-3.96v-10.692h2.844v10.476q0 2.592 1.296 3.78 1.332 1.188 3.564 1.188 2.52 0 4.14-1.656t1.62-4.932v-8.856h2.844v21.708q0 1.44-.828 2.268-.792.828-2.34.828z"/></svg>