<svg width="537" height="159" viewBox="0 0 537 159" fill="none" xmlns="http://www.w3.org/2000/svg">
<path d="M1 116C1 108.8 1 101.6 1 94.4C1 87.2 1 80 1 72.8C1 65.6 1 58.4 1 51.2C1 44 1 36.8 1 29.6C1 25.2 1 20.85 1 16.55C1 12.15 1 7.8 1 3.49999H63.25C63.25 13.2 63.25 22.9 63.25 32.6C63.25 42.2 63.25 51.85 63.25 61.55C63.25 67.55 63.25 73.6 63.25 79.7C63.25 85.7 63.25 91.75 63.25 97.85C63.25 103.85 63.25 109.9 63.25 116H1ZM195.412 41.3H130.162C130.062 41.3 130.012 41.3 130.012 41.3V49.55C130.012 49.65 130.012 49.75 130.012 49.85C130.112 49.85 130.162 49.85 130.162 49.85H193.162V71H130.162C130.162 71 130.112 71 130.012 71C130.012 71 130.012 71.05 130.012 71.15C130.012 71.15 130.012 71.2 130.012 71.3V79.7C130.112 79.7 130.162 79.7 130.162 79.7H196.312V116H69.2617C69.2617 110.1 69.2617 104.2 69.2617 98.3C69.2617 92.3 69.2617 86.35 69.2617 80.45C69.2617 74.55 69.2617 68.65 69.2617 62.75C69.2617 56.75 69.2617 50.8 69.2617 44.9C69.2617 38.9 69.2617 32.95 69.2617 27.05C69.2617 23.15 69.2617 19.25 69.2617 15.35C69.2617 11.35 69.2617 7.39999 69.2617 3.49999H195.412V41.3ZM328.127 41.3H262.877C262.777 41.3 262.727 41.3 262.727 41.3V49.55C262.727 49.65 262.727 49.75 262.727 49.85C262.827 49.85 262.877 49.85 262.877 49.85H325.877V71H262.877C262.877 71 262.827 71 262.727 71C262.727 71 262.727 71.05 262.727 71.15C262.727 71.15 262.727 71.2 262.727 71.3V79.7C262.827 79.7 262.877 79.7 262.877 79.7H329.027V116H201.977C201.977 110.1 201.977 104.2 201.977 98.3C201.977 92.3 201.977 86.35 201.977 80.45C201.977 74.55 201.977 68.65 201.977 62.75C201.977 56.75 201.977 50.8 201.977 44.9C201.977 38.9 201.977 32.95 201.977 27.05C201.977 23.15 201.977 19.25 201.977 15.35C201.977 11.35 201.977 7.39999 201.977 3.49999H328.127V41.3ZM460.841 41.3H395.591C395.491 41.3 395.441 41.3 395.441 41.3V49.55C395.441 49.65 395.441 49.75 395.441 49.85C395.541 49.85 395.591 49.85 395.591 49.85H458.591V71H395.591C395.591 71 395.541 71 395.441 71C395.441 71 395.441 71.05 395.441 71.15C395.441 71.15 395.441 71.2 395.441 71.3V79.7C395.541 79.7 395.591 79.7 395.591 79.7H461.741V116H334.691C334.691 110.1 334.691 104.2 334.691 98.3C334.691 92.3 334.691 86.35 334.691 80.45C334.691 74.55 334.691 68.65 334.691 62.75C334.691 56.75 334.691 50.8 334.691 44.9C334.691 38.9 334.691 32.95 334.691 27.05C334.691 23.15 334.691 19.25 334.691 15.35C334.691 11.35 334.691 7.39999 334.691 3.49999H460.841V41.3Z" fill="#7E3BBF"/>
<path d="M477 66.656C479.4 67.36 481.8 68.08 484.2 68.816C486.6 69.52 489 70.24 491.4 70.976C493.8 71.68 496.2 72.4 498.6 73.136C501 73.84 503.4 74.56 505.8 75.296C508.2 76 510.6 76.72 513 77.456V105.248C509 106.432 505 107.632 501 108.848C497 110.032 493 111.216 489 112.4C485 113.584 481 114.784 477 116V94.592C478.248 94.4 479.496 94.208 480.744 94.016C481.96 93.792 483.192 93.584 484.44 93.392C485.688 93.2 486.936 93.008 488.184 92.816C489.432 92.624 490.68 92.432 491.928 92.24C493.176 92.048 494.424 91.856 495.672 91.664C496.888 91.44 498.12 91.232 499.368 91.04C499.368 91.008 499.368 90.992 499.368 90.992C499.368 90.96 499.368 90.944 499.368 90.944C498.312 90.784 497.256 90.624 496.2 90.464C495.112 90.272 494.04 90.096 492.984 89.936C491.928 89.776 490.872 89.616 489.816 89.456C488.728 89.264 487.656 89.088 486.6 88.928C485.512 88.736 484.44 88.56 483.384 88.4C482.328 88.24 481.272 88.08 480.216 87.92C479.128 87.728 478.056 87.552 477 87.392V66.656ZM513 65.6806C510.696 65.6806 508.392 65.6806 506.088 65.6806C503.784 65.6806 501.48 65.6806 499.176 65.6806C496.872 65.6806 494.568 65.6806 492.264 65.6806C489.96 65.6806 487.656 65.6806 485.352 65.6806C483.944 65.6806 482.552 65.6806 481.176 65.6806C479.768 65.6806 478.376 65.6806 477 65.6806V45.7606C480.104 45.7606 483.208 45.7606 486.312 45.7606C489.384 45.7606 492.472 45.7606 495.576 45.7606C497.496 45.7606 499.432 45.7606 501.384 45.7606C503.304 45.7606 505.24 45.7606 507.192 45.7606C509.112 45.7606 511.048 45.7606 513 45.7606V65.6806ZM477 0.924873H491.592V12.4929C491.592 12.4929 491.608 12.5089 491.64 12.5409C491.64 12.5409 491.64 12.5569 491.64 12.5889C491.64 12.5889 491.656 12.5889 491.688 12.5889C493.096 12.5889 494.52 12.5889 495.96 12.5889C497.368 12.5889 498.792 12.5889 500.232 12.5889C501.64 12.5889 503.064 12.5889 504.504 12.5889C505.912 12.5889 507.336 12.5889 508.776 12.5889C510.184 12.5889 511.592 12.5889 513 12.5889V32.5089C510.632 32.5089 508.264 32.5089 505.896 32.5089C503.528 32.5089 501.16 32.5089 498.792 32.5089C496.424 32.5089 494.056 32.5089 491.688 32.5089C491.656 32.5089 491.64 32.5249 491.64 32.5569C491.608 32.5569 491.592 32.5729 491.592 32.6049V44.1729H477V0.924873Z" fill="#7E3BBF"/>
<path d="M0.88 151V125.8H11.068C12.628 125.8 13.996 126.076 15.172 126.628C16.372 127.156 17.308 127.924 17.98 128.932C18.652 129.916 18.988 131.104 18.988 132.496V132.892C18.988 134.548 18.592 135.856 17.8 136.816C17.008 137.776 16.072 138.424 14.992 138.76V139.264C15.856 139.288 16.564 139.576 17.116 140.128C17.692 140.656 17.98 141.46 17.98 142.54V151H14.992V142.9C14.992 142.18 14.788 141.628 14.38 141.244C13.996 140.86 13.408 140.668 12.616 140.668H3.904V151H0.88ZM3.904 137.932H10.78C12.436 137.932 13.708 137.536 14.596 136.744C15.508 135.928 15.964 134.8 15.964 133.36V133.108C15.964 131.668 15.52 130.552 14.632 129.76C13.744 128.944 12.46 128.536 10.78 128.536H3.904V137.932ZM31.8349 151.504C30.0589 151.504 28.4869 151.132 27.1189 150.388C25.7749 149.644 24.7189 148.6 23.9509 147.256C23.2069 145.888 22.8349 144.28 22.8349 142.432V141.964C22.8349 140.14 23.2069 138.544 23.9509 137.176C24.7189 135.808 25.7749 134.752 27.1189 134.008C28.4869 133.264 30.0589 132.892 31.8349 132.892C33.6109 132.892 35.1709 133.264 36.5149 134.008C37.8829 134.752 38.9389 135.808 39.6829 137.176C40.4509 138.544 40.8349 140.14 40.8349 141.964V142.432C40.8349 144.28 40.4509 145.888 39.6829 147.256C38.9389 148.6 37.8829 149.644 36.5149 150.388C35.1709 151.132 33.6109 151.504 31.8349 151.504ZM31.8349 148.948C33.7069 148.948 35.1949 148.36 36.2989 147.184C37.4269 145.984 37.9909 144.376 37.9909 142.36V142.036C37.9909 140.02 37.4269 138.424 36.2989 137.248C35.1949 136.048 33.7069 135.448 31.8349 135.448C29.9869 135.448 28.4989 136.048 27.3709 137.248C26.2429 138.424 25.6789 140.02 25.6789 142.036V142.36C25.6789 144.376 26.2429 145.984 27.3709 147.184C28.4989 148.36 29.9869 148.948 31.8349 148.948ZM55.7088 151.504C53.8848 151.504 52.4568 151.156 51.4248 150.46C50.4168 149.764 49.6848 148.972 49.2288 148.084H48.7248V151H45.9528V125.8H48.7968V136.168H49.3008C49.5888 135.616 49.9968 135.1 50.5248 134.62C51.0528 134.116 51.7368 133.708 52.5768 133.396C53.4408 133.06 54.4848 132.892 55.7088 132.892C57.2448 132.892 58.6368 133.264 59.8848 134.008C61.1568 134.728 62.1648 135.772 62.9088 137.14C63.6528 138.484 64.0248 140.092 64.0248 141.964V142.432C64.0248 144.304 63.6408 145.924 62.8728 147.292C62.1288 148.66 61.1208 149.704 59.8488 150.424C58.6008 151.144 57.2208 151.504 55.7088 151.504ZM54.9528 148.984C56.7768 148.984 58.2528 148.408 59.3808 147.256C60.5328 146.08 61.1088 144.448 61.1088 142.36V142.036C61.1088 139.948 60.5328 138.328 59.3808 137.176C58.2528 136 56.7768 135.412 54.9528 135.412C53.1528 135.412 51.6648 136 50.4888 137.176C49.3368 138.328 48.7608 139.948 48.7608 142.036V142.36C48.7608 144.448 49.3368 146.08 50.4888 147.256C51.6648 148.408 53.1528 148.984 54.9528 148.984ZM77.2568 151.504C75.4808 151.504 73.9088 151.132 72.5408 150.388C71.1968 149.644 70.1408 148.6 69.3728 147.256C68.6288 145.888 68.2568 144.28 68.2568 142.432V141.964C68.2568 140.14 68.6288 138.544 69.3728 137.176C70.1408 135.808 71.1968 134.752 72.5408 134.008C73.9088 133.264 75.4808 132.892 77.2568 132.892C79.0328 132.892 80.5928 133.264 81.9368 134.008C83.3048 134.752 84.3608 135.808 85.1048 137.176C85.8728 138.544 86.2568 140.14 86.2568 141.964V142.432C86.2568 144.28 85.8728 145.888 85.1048 147.256C84.3608 148.6 83.3048 149.644 81.9368 150.388C80.5928 151.132 79.0328 151.504 77.2568 151.504ZM77.2568 148.948C79.1288 148.948 80.6168 148.36 81.7208 147.184C82.8488 145.984 83.4128 144.376 83.4128 142.36V142.036C83.4128 140.02 82.8488 138.424 81.7208 137.248C80.6168 136.048 79.1288 135.448 77.2568 135.448C75.4088 135.448 73.9208 136.048 72.7928 137.248C71.6648 138.424 71.1008 140.02 71.1008 142.036V142.36C71.1008 144.376 71.6648 145.984 72.7928 147.184C73.9208 148.36 75.4088 148.948 77.2568 148.948ZM97.1164 151C96.1084 151 95.3284 150.724 94.7764 150.172C94.2484 149.62 93.9844 148.864 93.9844 147.904V135.88H88.6924V133.396H93.9844V127.132H96.8284V133.396H102.588V135.88H96.8284V147.472C96.8284 148.192 97.1764 148.552 97.8724 148.552H101.796V151H97.1164ZM107.195 151V133.396H110.039V151H107.195ZM108.635 130.66C108.011 130.66 107.483 130.456 107.051 130.048C106.643 129.64 106.439 129.124 106.439 128.5C106.439 127.852 106.643 127.324 107.051 126.916C107.483 126.508 108.011 126.304 108.635 126.304C109.259 126.304 109.775 126.508 110.183 126.916C110.591 127.324 110.795 127.852 110.795 128.5C110.795 129.124 110.591 129.64 110.183 130.048C109.775 130.456 109.259 130.66 108.635 130.66ZM124.119 151.504C122.415 151.504 120.879 151.144 119.511 150.424C118.167 149.68 117.099 148.624 116.307 147.256C115.539 145.888 115.155 144.268 115.155 142.396V142C115.155 140.104 115.539 138.484 116.307 137.14C117.099 135.772 118.167 134.728 119.511 134.008C120.879 133.264 122.415 132.892 124.119 132.892C125.799 132.892 127.227 133.204 128.403 133.828C129.603 134.452 130.539 135.28 131.211 136.312C131.907 137.344 132.351 138.448 132.543 139.624L129.771 140.2C129.651 139.336 129.363 138.544 128.907 137.824C128.475 137.104 127.863 136.528 127.071 136.096C126.279 135.664 125.307 135.448 124.155 135.448C122.979 135.448 121.923 135.712 120.987 136.24C120.075 136.768 119.343 137.524 118.791 138.508C118.263 139.492 117.999 140.668 117.999 142.036V142.36C117.999 143.728 118.263 144.904 118.791 145.888C119.343 146.872 120.075 147.628 120.987 148.156C121.923 148.684 122.979 148.948 124.155 148.948C125.907 148.948 127.239 148.492 128.151 147.58C129.087 146.668 129.663 145.54 129.879 144.196L132.687 144.808C132.423 145.96 131.943 147.052 131.247 148.084C130.551 149.116 129.603 149.944 128.403 150.568C127.227 151.192 125.799 151.504 124.119 151.504ZM144.627 151.504C142.443 151.504 140.595 151 139.083 149.992C137.595 148.984 136.695 147.388 136.383 145.204L139.083 144.592C139.275 145.744 139.635 146.656 140.163 147.328C140.691 147.976 141.339 148.444 142.107 148.732C142.899 148.996 143.739 149.128 144.627 149.128C145.947 149.128 146.991 148.864 147.759 148.336C148.527 147.808 148.911 147.1 148.911 146.212C148.911 145.3 148.539 144.664 147.795 144.304C147.075 143.92 146.079 143.608 144.807 143.368L143.331 143.116C142.203 142.924 141.171 142.624 140.235 142.216C139.299 141.808 138.555 141.256 138.003 140.56C137.451 139.864 137.175 138.988 137.175 137.932C137.175 136.348 137.787 135.112 139.011 134.224C140.235 133.336 141.855 132.892 143.871 132.892C145.863 132.892 147.471 133.348 148.695 134.26C149.943 135.148 150.747 136.408 151.107 138.04L148.443 138.724C148.227 137.452 147.711 136.564 146.895 136.06C146.079 135.532 145.071 135.268 143.871 135.268C142.671 135.268 141.723 135.496 141.027 135.952C140.331 136.384 139.983 137.032 139.983 137.896C139.983 138.736 140.307 139.36 140.955 139.768C141.627 140.152 142.515 140.44 143.619 140.632L145.095 140.884C146.343 141.1 147.459 141.4 148.443 141.784C149.451 142.144 150.243 142.672 150.819 143.368C151.419 144.064 151.719 144.976 151.719 146.104C151.719 147.832 151.071 149.164 149.775 150.1C148.503 151.036 146.787 151.504 144.627 151.504ZM171.777 151C170.385 151 169.125 150.736 167.997 150.208C166.869 149.68 165.981 148.924 165.333 147.94C164.685 146.956 164.361 145.756 164.361 144.34C164.361 143.284 164.565 142.36 164.973 141.568C165.381 140.776 165.909 140.128 166.557 139.624C167.229 139.096 167.937 138.7 168.681 138.436V138.04C167.577 137.704 166.617 137.092 165.801 136.204C164.985 135.292 164.577 134.056 164.577 132.496C164.577 131.056 164.913 129.832 165.585 128.824C166.257 127.816 167.145 127.06 168.249 126.556C169.353 126.052 170.577 125.8 171.921 125.8H176.457V128.248H172.281C170.937 128.248 169.797 128.62 168.861 129.364C167.949 130.084 167.493 131.188 167.493 132.676C167.493 133.684 167.709 134.512 168.141 135.16C168.597 135.808 169.185 136.288 169.905 136.6C170.625 136.888 171.417 137.032 172.281 137.032H177.249V133.18H180.093V137.032H183.621V139.516H180.093V151H171.777ZM172.137 148.552H177.249V139.516H172.137C170.769 139.516 169.605 139.888 168.645 140.632C167.709 141.352 167.241 142.48 167.241 144.016C167.241 145.552 167.721 146.692 168.681 147.436C169.665 148.18 170.817 148.552 172.137 148.552ZM194.193 151L201.969 125.8H207.297L215.073 151H211.941L209.997 144.628H199.269L197.325 151H194.193ZM200.025 141.892H209.205L204.885 127.636H204.381L200.025 141.892ZM225.689 151.324C224.417 151.324 223.241 151.048 222.161 150.496C221.105 149.944 220.265 149.128 219.641 148.048C219.041 146.944 218.741 145.612 218.741 144.052V133.396H221.585V143.836C221.585 145.588 222.017 146.86 222.881 147.652C223.769 148.444 224.957 148.84 226.445 148.84C228.125 148.84 229.505 148.288 230.585 147.184C231.665 146.08 232.205 144.436 232.205 142.252V133.396H235.049V151H232.277V148.012H231.773C231.389 148.852 230.729 149.62 229.793 150.316C228.857 150.988 227.489 151.324 225.689 151.324ZM247.48 151C246.472 151 245.692 150.724 245.14 150.172C244.612 149.62 244.348 148.864 244.348 147.904V135.88H239.056V133.396H244.348V127.132H247.192V133.396H252.952V135.88H247.192V147.472C247.192 148.192 247.54 148.552 248.236 148.552H252.16V151H247.48ZM265.062 151.504C263.286 151.504 261.714 151.132 260.346 150.388C259.002 149.644 257.946 148.6 257.178 147.256C256.434 145.888 256.062 144.28 256.062 142.432V141.964C256.062 140.14 256.434 138.544 257.178 137.176C257.946 135.808 259.002 134.752 260.346 134.008C261.714 133.264 263.286 132.892 265.062 132.892C266.838 132.892 268.398 133.264 269.742 134.008C271.11 134.752 272.166 135.808 272.91 137.176C273.678 138.544 274.062 140.14 274.062 141.964V142.432C274.062 144.28 273.678 145.888 272.91 147.256C272.166 148.6 271.11 149.644 269.742 150.388C268.398 151.132 266.838 151.504 265.062 151.504ZM265.062 148.948C266.934 148.948 268.422 148.36 269.526 147.184C270.654 145.984 271.218 144.376 271.218 142.36V142.036C271.218 140.02 270.654 138.424 269.526 137.248C268.422 136.048 266.934 135.448 265.062 135.448C263.214 135.448 261.726 136.048 260.598 137.248C259.47 138.424 258.906 140.02 258.906 142.036V142.36C258.906 144.376 259.47 145.984 260.598 147.184C261.726 148.36 263.214 148.948 265.062 148.948ZM279.179 151V133.396H281.951V135.592H282.455C282.791 134.968 283.343 134.392 284.111 133.864C284.879 133.336 285.959 133.072 287.351 133.072C288.719 133.072 289.823 133.372 290.663 133.972C291.527 134.572 292.151 135.304 292.535 136.168H293.039C293.447 135.304 294.059 134.572 294.875 133.972C295.715 133.372 296.879 133.072 298.367 133.072C299.543 133.072 300.575 133.312 301.463 133.792C302.351 134.272 303.047 134.968 303.551 135.88C304.079 136.768 304.343 137.836 304.343 139.084V151H301.499V139.336C301.499 138.16 301.151 137.236 300.455 136.564C299.783 135.868 298.835 135.52 297.611 135.52C296.315 135.52 295.247 135.94 294.407 136.78C293.591 137.62 293.183 138.832 293.183 140.416V151H290.339V139.336C290.339 138.16 289.991 137.236 289.295 136.564C288.623 135.868 287.675 135.52 286.451 135.52C285.155 135.52 284.087 135.94 283.247 136.78C282.431 137.62 282.023 138.832 282.023 140.416V151H279.179ZM315.552 151.504C314.328 151.504 313.212 151.288 312.204 150.856C311.196 150.424 310.404 149.8 309.828 148.984C309.252 148.168 308.964 147.172 308.964 145.996C308.964 144.796 309.252 143.812 309.828 143.044C310.404 142.252 311.196 141.664 312.204 141.28C313.212 140.872 314.34 140.668 315.588 140.668H321.528V139.372C321.528 138.124 321.156 137.14 320.412 136.42C319.692 135.7 318.612 135.34 317.172 135.34C315.756 135.34 314.652 135.688 313.86 136.384C313.068 137.056 312.528 137.968 312.24 139.12L309.576 138.256C309.864 137.272 310.32 136.384 310.944 135.592C311.568 134.776 312.396 134.128 313.428 133.648C314.484 133.144 315.744 132.892 317.208 132.892C319.464 132.892 321.216 133.48 322.464 134.656C323.712 135.808 324.336 137.44 324.336 139.552V147.508C324.336 148.228 324.672 148.588 325.344 148.588H326.964V151H324.48C323.688 151 323.052 150.784 322.572 150.352C322.092 149.896 321.852 149.296 321.852 148.552V148.372H321.42C321.156 148.828 320.796 149.308 320.34 149.812C319.908 150.292 319.308 150.688 318.54 151C317.772 151.336 316.776 151.504 315.552 151.504ZM315.876 149.056C317.556 149.056 318.912 148.564 319.944 147.58C321 146.572 321.528 145.168 321.528 143.368V142.972H315.696C314.568 142.972 313.632 143.224 312.888 143.728C312.168 144.208 311.808 144.94 311.808 145.924C311.808 146.908 312.18 147.676 312.924 148.228C313.692 148.78 314.676 149.056 315.876 149.056ZM336.179 151C335.171 151 334.391 150.724 333.839 150.172C333.311 149.62 333.047 148.864 333.047 147.904V135.88H327.755V133.396H333.047V127.132H335.891V133.396H341.651V135.88H335.891V147.472C335.891 148.192 336.239 148.552 336.935 148.552H340.859V151H336.179ZM346.258 151V133.396H349.102V151H346.258ZM347.698 130.66C347.074 130.66 346.546 130.456 346.114 130.048C345.706 129.64 345.502 129.124 345.502 128.5C345.502 127.852 345.706 127.324 346.114 126.916C346.546 126.508 347.074 126.304 347.698 126.304C348.322 126.304 348.838 126.508 349.246 126.916C349.654 127.324 349.858 127.852 349.858 128.5C349.858 129.124 349.654 129.64 349.246 130.048C348.838 130.456 348.322 130.66 347.698 130.66ZM363.218 151.504C361.442 151.504 359.87 151.132 358.502 150.388C357.158 149.644 356.102 148.6 355.334 147.256C354.59 145.888 354.218 144.28 354.218 142.432V141.964C354.218 140.14 354.59 138.544 355.334 137.176C356.102 135.808 357.158 134.752 358.502 134.008C359.87 133.264 361.442 132.892 363.218 132.892C364.994 132.892 366.554 133.264 367.898 134.008C369.266 134.752 370.322 135.808 371.066 137.176C371.834 138.544 372.218 140.14 372.218 141.964V142.432C372.218 144.28 371.834 145.888 371.066 147.256C370.322 148.6 369.266 149.644 367.898 150.388C366.554 151.132 364.994 151.504 363.218 151.504ZM363.218 148.948C365.09 148.948 366.578 148.36 367.682 147.184C368.81 145.984 369.374 144.376 369.374 142.36V142.036C369.374 140.02 368.81 138.424 367.682 137.248C366.578 136.048 365.09 135.448 363.218 135.448C361.37 135.448 359.882 136.048 358.754 137.248C357.626 138.424 357.062 140.02 357.062 142.036V142.36C357.062 144.376 357.626 145.984 358.754 147.184C359.882 148.36 361.37 148.948 363.218 148.948ZM377.336 151V133.396H380.108V136.384H380.612C380.996 135.544 381.644 134.788 382.556 134.116C383.492 133.42 384.86 133.072 386.66 133.072C387.98 133.072 389.156 133.348 390.188 133.9C391.244 134.452 392.084 135.268 392.708 136.348C393.332 137.428 393.644 138.76 393.644 140.344V151H390.8V140.56C390.8 138.808 390.356 137.536 389.468 136.744C388.604 135.952 387.428 135.556 385.94 135.556C384.236 135.556 382.844 136.108 381.764 137.212C380.708 138.316 380.18 139.96 380.18 142.144V151H377.336ZM416.905 151.504C415.081 151.504 413.449 151.18 412.009 150.532C410.569 149.884 409.429 148.912 408.589 147.616C407.773 146.296 407.365 144.652 407.365 142.684V141.928H410.353V142.684C410.353 144.772 410.965 146.332 412.189 147.364C413.413 148.372 414.985 148.876 416.905 148.876C418.873 148.876 420.373 148.432 421.405 147.544C422.437 146.656 422.953 145.54 422.953 144.196C422.953 143.26 422.713 142.516 422.233 141.964C421.777 141.412 421.129 140.968 420.289 140.632C419.449 140.272 418.465 139.96 417.337 139.696L415.465 139.228C414.001 138.844 412.705 138.376 411.577 137.824C410.449 137.272 409.561 136.552 408.913 135.664C408.289 134.752 407.977 133.588 407.977 132.172C407.977 130.756 408.325 129.532 409.021 128.5C409.741 127.468 410.737 126.676 412.009 126.124C413.305 125.572 414.793 125.296 416.473 125.296C418.177 125.296 419.701 125.596 421.045 126.196C422.413 126.772 423.481 127.636 424.249 128.788C425.041 129.916 425.437 131.344 425.437 133.072V134.584H422.449V133.072C422.449 131.848 422.185 130.864 421.657 130.12C421.153 129.376 420.445 128.824 419.533 128.464C418.645 128.104 417.625 127.924 416.473 127.924C414.817 127.924 413.485 128.296 412.477 129.04C411.469 129.76 410.965 130.792 410.965 132.136C410.965 133.024 411.181 133.744 411.613 134.296C412.045 134.848 412.657 135.304 413.449 135.664C414.241 136 415.189 136.3 416.293 136.564L418.165 137.032C419.629 137.344 420.937 137.776 422.089 138.328C423.265 138.856 424.201 139.588 424.897 140.524C425.593 141.436 425.941 142.636 425.941 144.124C425.941 145.612 425.569 146.908 424.825 148.012C424.081 149.116 423.025 149.98 421.657 150.604C420.313 151.204 418.729 151.504 416.905 151.504ZM438.839 151.504C437.063 151.504 435.491 151.132 434.123 150.388C432.779 149.644 431.723 148.6 430.955 147.256C430.211 145.888 429.839 144.28 429.839 142.432V141.964C429.839 140.14 430.211 138.544 430.955 137.176C431.723 135.808 432.779 134.752 434.123 134.008C435.491 133.264 437.063 132.892 438.839 132.892C440.615 132.892 442.175 133.264 443.519 134.008C444.887 134.752 445.943 135.808 446.687 137.176C447.455 138.544 447.839 140.14 447.839 141.964V142.432C447.839 144.28 447.455 145.888 446.687 147.256C445.943 148.6 444.887 149.644 443.519 150.388C442.175 151.132 440.615 151.504 438.839 151.504ZM438.839 148.948C440.711 148.948 442.199 148.36 443.303 147.184C444.431 145.984 444.995 144.376 444.995 142.36V142.036C444.995 140.02 444.431 138.424 443.303 137.248C442.199 136.048 440.711 135.448 438.839 135.448C436.991 135.448 435.503 136.048 434.375 137.248C433.247 138.424 432.683 140.02 432.683 142.036V142.36C432.683 144.376 433.247 145.984 434.375 147.184C435.503 148.36 436.991 148.948 438.839 148.948ZM461.057 151.504C459.353 151.504 457.817 151.144 456.449 150.424C455.105 149.68 454.037 148.624 453.245 147.256C452.477 145.888 452.093 144.268 452.093 142.396V142C452.093 140.104 452.477 138.484 453.245 137.14C454.037 135.772 455.105 134.728 456.449 134.008C457.817 133.264 459.353 132.892 461.057 132.892C462.737 132.892 464.165 133.204 465.341 133.828C466.541 134.452 467.477 135.28 468.149 136.312C468.845 137.344 469.289 138.448 469.481 139.624L466.709 140.2C466.589 139.336 466.301 138.544 465.845 137.824C465.413 137.104 464.801 136.528 464.009 136.096C463.217 135.664 462.245 135.448 461.093 135.448C459.917 135.448 458.861 135.712 457.925 136.24C457.013 136.768 456.281 137.524 455.729 138.508C455.201 139.492 454.937 140.668 454.937 142.036V142.36C454.937 143.728 455.201 144.904 455.729 145.888C456.281 146.872 457.013 147.628 457.925 148.156C458.861 148.684 459.917 148.948 461.093 148.948C462.845 148.948 464.177 148.492 465.089 147.58C466.025 146.668 466.601 145.54 466.817 144.196L469.625 144.808C469.361 145.96 468.881 147.052 468.185 148.084C467.489 149.116 466.541 149.944 465.341 150.568C464.165 151.192 462.737 151.504 461.057 151.504ZM474.472 151V133.396H477.316V151H474.472ZM475.912 130.66C475.288 130.66 474.76 130.456 474.328 130.048C473.92 129.64 473.716 129.124 473.716 128.5C473.716 127.852 473.92 127.324 474.328 126.916C474.76 126.508 475.288 126.304 475.912 126.304C476.536 126.304 477.052 126.508 477.46 126.916C477.868 127.324 478.072 127.852 478.072 128.5C478.072 129.124 477.868 129.64 477.46 130.048C477.052 130.456 476.536 130.66 475.912 130.66ZM491.361 151.504C489.585 151.504 488.025 151.132 486.681 150.388C485.337 149.62 484.293 148.552 483.549 147.184C482.805 145.816 482.433 144.232 482.433 142.432V142C482.433 140.176 482.805 138.58 483.549 137.212C484.293 135.844 485.325 134.788 486.645 134.044C487.965 133.276 489.477 132.892 491.181 132.892C492.837 132.892 494.301 133.252 495.573 133.972C496.845 134.668 497.841 135.676 498.561 136.996C499.281 138.316 499.641 139.864 499.641 141.64V142.936H485.277C485.349 144.832 485.961 146.32 487.113 147.4C488.265 148.456 489.705 148.984 491.433 148.984C492.945 148.984 494.109 148.636 494.925 147.94C495.741 147.244 496.365 146.416 496.797 145.456L499.245 146.644C498.885 147.388 498.381 148.132 497.733 148.876C497.109 149.62 496.281 150.244 495.249 150.748C494.241 151.252 492.945 151.504 491.361 151.504ZM485.313 140.596H496.761C496.665 138.964 496.101 137.692 495.069 136.78C494.061 135.868 492.765 135.412 491.181 135.412C489.573 135.412 488.253 135.868 487.221 136.78C486.189 137.692 485.553 138.964 485.313 140.596ZM510.343 151C509.335 151 508.555 150.724 508.003 150.172C507.475 149.62 507.211 148.864 507.211 147.904V135.88H501.919V133.396H507.211V127.132H510.055V133.396H515.815V135.88H510.055V147.472C510.055 148.192 510.403 148.552 511.099 148.552H515.023V151H510.343ZM522.546 158.2V155.68H532.626C533.322 155.68 533.67 155.32 533.67 154.6V148.192H533.166C532.926 148.696 532.554 149.2 532.05 149.704C531.57 150.184 530.934 150.58 530.142 150.892C529.35 151.18 528.354 151.324 527.154 151.324C525.882 151.324 524.706 151.048 523.626 150.496C522.57 149.944 521.73 149.128 521.106 148.048C520.506 146.968 520.206 145.648 520.206 144.088V133.396H523.05V143.872C523.05 145.6 523.482 146.86 524.346 147.652C525.234 148.444 526.422 148.84 527.91 148.84C529.59 148.84 530.97 148.288 532.05 147.184C533.13 146.08 533.67 144.436 533.67 142.252V133.396H536.514V155.104C536.514 156.064 536.238 156.82 535.686 157.372C535.158 157.924 534.378 158.2 533.346 158.2H522.546Z" fill="white" fill-opacity="0.7"/>
</svg>
